Sprint_07200001_forces_filt15Hz.mot
version=1
nRows=24
nColumns=19
inDegrees=yes
endheader
time	R_ground_force_vx	R_ground_force_vy	R_ground_force_vz	R_ground_force_px	R_ground_force_py	R_ground_force_pz	R_ground_torque_x	R_ground_torque_y	R_ground_torque_z	L_ground_force_vx	L_ground_force_vy	L_ground_force_vz	L_ground_force_px	L_ground_force_py	L_ground_force_pz	L_ground_torque_x	L_ground_torque_y	L_ground_torque_z	
0.794500	  0.000000	  0.000000	  0.000000	  1.214550	  0.000000	 -0.317963	  0.000000	  0.000000	  0.000000	  0.000000	  0.000000	  0.000000	  0.166049	  0.000000	 -0.356331	  0.000000	  0.000000	  0.000000
0.795000	  0.000000	  0.000000	  0.000000	  1.215666	  0.000000	 -0.317972	  0.000000	  0.000000	  0.000000	  0.000000	  0.000000	  0.000000	  0.165639	  0.000000	 -0.356429	  0.000000	  0.000000	  0.000000
0.795500	  0.000000	  0.000000	  0.000000	  1.216481	  0.000000	 -0.317967	  0.000000	  0.000000	  0.000000	  0.000000	  0.000000	  0.000000	  0.165518	  0.000000	 -0.356353	  0.000000	  0.000000	  0.000000
0.796000	  0.000000	  0.000000	  0.000000	  1.217295	  0.000000	 -0.317961	  0.000000	  0.000000	  0.000000	  0.000000	  0.000000	  0.000000	  0.165397	  0.000000	 -0.356277	  0.000000	  0.000000	  0.000000
0.796500	  0.000000	  0.000000	  0.000000	  1.218109	  0.000000	 -0.317956	  0.000000	  0.000000	  0.000000	  0.000000	  0.000000	  0.000000	  0.165276	  0.000000	 -0.356202	  0.000000	  0.000000	  0.000000
0.797000	  0.000000	  0.000000	  0.000000	  1.218924	  0.000000	 -0.317951	  0.000000	  0.000000	  0.000000	  0.000000	  0.000000	  0.000000	  0.165155	  0.000000	 -0.356126	  0.000000	  0.000000	  0.000000
0.797500	  0.000000	  0.000000	  0.000000	  1.219738	  0.000000	 -0.317945	  0.000000	  0.000000	  0.000000	  0.000000	  0.000000	  0.000000	  0.165034	  0.000000	 -0.356051	  0.000000	  0.000000	  0.000000
0.798000	  0.000000	  0.000000	  0.000000	  1.220552	  0.000000	 -0.317940	  0.000000	  0.000000	  0.000000	  0.000000	  0.000000	  0.000000	  0.164914	  0.000000	 -0.355975	  0.000000	  0.000000	  0.000000
0.798500	  0.000000	  0.000000	  0.000000	  1.221367	  0.000000	 -0.317935	  0.000000	  0.000000	  0.000000	  0.000000	  0.000000	  0.000000	  0.164793	  0.000000	 -0.355900	  0.000000	  0.000000	  0.000000
0.799000	  0.000000	  0.000000	  0.000000	  1.222181	  0.000000	 -0.317930	  0.000000	  0.000000	  0.000000	  0.000000	  0.000000	  0.000000	  0.164672	  0.000000	 -0.355824	  0.000000	  0.000000	  0.000000
0.799500	  0.000000	  0.000000	  0.000000	  1.222995	  0.000000	 -0.317924	  0.000000	  0.000000	  0.000000	  0.000000	  0.000000	  0.000000	  0.164551	  0.000000	 -0.355749	  0.000000	  0.000000	  0.000000
0.800000	  0.000000	  0.000000	  0.000000	  1.223810	  0.000000	 -0.317919	  0.000000	  0.000000	  0.000000	  0.000000	  0.000000	  0.000000	  0.164430	  0.000000	 -0.355673	  0.000000	  0.000000	  0.000000
0.800500	  0.000000	  0.000000	  0.000000	  1.224286	  0.000000	 -0.317929	  0.000000	  0.000000	  0.000000	  0.000000	  0.000000	  0.000000	  0.164595	  0.000000	 -0.355758	  0.000000	  0.000000	  0.000000
0.801000	  0.000000	  0.000000	  0.000000	  1.224763	  0.000000	 -0.317940	  0.000000	  0.000000	  0.000000	  0.000000	  0.000000	  0.000000	  0.164759	  0.000000	 -0.355843	  0.000000	  0.000000	  0.000000
0.801500	  0.000000	  0.000000	  0.000000	  1.225240	  0.000000	 -0.317950	  0.000000	  0.000000	  0.000000	  0.000000	  0.000000	  0.000000	  0.164924	  0.000000	 -0.355928	  0.000000	  0.000000	  0.000000
0.802000	  0.000000	  0.000000	  0.000000	  1.225717	  0.000000	 -0.317960	  0.000000	  0.000000	  0.000000	  0.000000	  0.000000	  0.000000	  0.165089	  0.000000	 -0.356013	  0.000000	  0.000000	  0.000000
0.802500	  0.000000	  0.000000	  0.000000	  1.226194	  0.000000	 -0.317970	  0.000000	  0.000000	  0.000000	  0.000000	  0.000000	  0.000000	  0.165254	  0.000000	 -0.356098	  0.000000	  0.000000	  0.000000
0.803000	  0.000000	  0.000000	  0.000000	  1.226671	  0.000000	 -0.317980	  0.000000	  0.000000	  0.000000	  0.000000	  0.000000	  0.000000	  0.165418	  0.000000	 -0.356183	  0.000000	  0.000000	  0.000000
0.803500	  0.000000	  0.000000	  0.000000	  1.227148	  0.000000	 -0.317991	  0.000000	  0.000000	  0.000000	  0.000000	  0.000000	  0.000000	  0.165583	  0.000000	 -0.356268	  0.000000	  0.000000	  0.000000
0.804000	  0.000000	  0.000000	  0.000000	  1.227625	  0.000000	 -0.318001	  0.000000	  0.000000	  0.000000	  0.000000	  0.000000	  0.000000	  0.165748	  0.000000	 -0.356354	  0.000000	  0.000000	  0.000000
0.804500	  0.000000	  0.000000	  0.000000	  1.228102	  0.000000	 -0.318011	  0.000000	  0.000000	  0.000000	  0.000000	  0.000000	  0.000000	  0.165912	  0.000000	 -0.356439	  0.000000	  0.000000	  0.000000
0.805000	  0.000000	  0.000000	  0.000000	  1.228579	  0.000000	 -0.318021	  0.000000	  0.000000	  0.000000	  0.000000	  0.000000	  0.000000	  0.166077	  0.000000	 -0.356524	  0.000000	  0.000000	  0.000000
0.805500	  0.000000	  0.000000	  0.000000	  1.228689	  0.000000	 -0.318075	  0.000000	  0.000000	  0.000000	  0.000000	  0.000000	  0.000000	  0.166473	  0.000000	 -0.356675	  0.000000	  0.000000	  0.000000
0.806000	  0.000000	  0.000000	  0.000000	  1.228799	  0.000000	 -0.318128	  0.000000	  0.000000	  0.000000	  0.000000	  0.000000	  0.000000	  0.166869	  0.000000	 -0.356827	  0.000000	  0.000000	  0.000000
